<?xml version="1.0" encoding="UTF-8" standalone="no"?>
<!DOCTYPE svg PUBLIC "-//W3C//DTD SVG 1.1//EN" "http://www.w3.org/Graphics/SVG/1.1/DTD/svg11.dtd">
<svg width="100%" height="100%" viewBox="0 0 128 128" version="1.1" xmlns="http://www.w3.org/2000/svg" xmlns:xlink="http://www.w3.org/1999/xlink" xml:space="preserve" xmlns:serif="http://www.serif.com/" style="fill-rule:evenodd;clip-rule:evenodd;stroke-linejoin:round;stroke-miterlimit:2;">
    <g transform="matrix(1,0,0,1,-3972.26,-463.3)">
        <g transform="matrix(0.256,0,0,0.256,3972.26,463.3)">
            <rect id="favicon" x="0" y="0" width="500" height="500" style="fill:none;"/>
            <clipPath id="_clip1">
                <rect id="favicon1" serif:id="favicon" x="0" y="0" width="500" height="500"/>
            </clipPath>
            <g clip-path="url(#_clip1)">
                <g transform="matrix(3.23684,0,0,3.24675,-11420.6,-1419.8)">
                    <ellipse cx="3605.55" cy="514.3" rx="77.236" ry="77" style="fill:rgb(104,40,223);"/>
                </g>
                <g transform="matrix(3.90625,0,0,3.90625,-15516.7,-1809.76)">
                    <path d="M4025.9,500.066C4024.2,499.012 4022.38,498.418 4020.45,498.418C4016.95,498.418 4013.77,500.382 4011.14,503.506C4006.62,508.887 4003.77,517.602 4003.77,527.392C4003.77,537.182 4006.62,545.896 4011.14,551.278C4013.77,554.401 4016.95,556.366 4020.45,556.366C4022.16,556.366 4023.54,557.751 4023.54,559.458C4023.54,561.164 4022.16,562.55 4020.45,562.55C4015.22,562.55 4010.33,559.917 4006.41,555.257C4001.12,548.965 3997.59,538.839 3997.59,527.392C3997.59,515.944 4001.12,505.819 4006.41,499.526C4010.33,494.866 4015.22,492.233 4020.45,492.233C4023.93,492.233 4027.25,493.397 4030.25,495.547C4033.1,493.306 4036.31,492.049 4039.69,492.049C4059.14,492.049 4074.94,507.844 4074.94,527.3C4074.94,546.755 4059.14,562.55 4039.69,562.55C4027.7,562.55 4017.96,546.755 4017.96,527.3C4017.96,516.335 4021.05,506.533 4025.9,500.066ZM4030.81,504.864C4027.01,510.328 4024.76,518.385 4024.76,527.3C4024.76,536.266 4027.04,544.365 4030.88,549.83C4034.75,544.411 4037.13,536.35 4037.13,527.392C4037.13,518.387 4034.72,510.292 4030.81,504.864ZM4035.25,554.308C4036.62,555.217 4038.1,555.752 4039.69,555.752C4055.39,555.752 4068.14,543.003 4068.14,527.3C4068.14,515.713 4061.2,505.735 4051.25,501.3C4047.72,499.724 4043.81,498.847 4039.69,498.847C4038.07,498.847 4036.55,499.407 4035.16,500.353C4040.08,506.685 4043.31,516.433 4043.31,527.392C4043.31,538.276 4040.12,547.963 4035.25,554.308Z" style="fill:white;"/>
                </g>
            </g>
        </g>
    </g>
</svg>
