<?xml version="1.0" encoding="UTF-8" standalone="no"?>
<!DOCTYPE svg PUBLIC "-//W3C//DTD SVG 1.1//EN" "http://www.w3.org/Graphics/SVG/1.1/DTD/svg11.dtd">
<svg width="100%" height="100%" viewBox="0 0 358 358" version="1.1" xmlns="http://www.w3.org/2000/svg" xmlns:xlink="http://www.w3.org/1999/xlink" xml:space="preserve" xmlns:serif="http://www.serif.com/" style="fill-rule:evenodd;clip-rule:evenodd;stroke-linejoin:round;stroke-miterlimit:2;">
    <g transform="matrix(1,0,0,1,-5445.7,-2466.67)">
        <g transform="matrix(0.715186,0,0,0.7152,5445.7,2466.67)">
            <g transform="matrix(1.39824,0,0,1.39821,-7614.38,-3448.92)">
                <ellipse cx="5624.49" cy="2645.47" rx="178.797" ry="178.8" style="fill:rgb(108,56,252);"/>
            </g>
            <g transform="matrix(0.909714,0,0,1.01377,49.8607,-3.44176)">
                <g transform="matrix(2.01879,0,0,0.947505,-43.4345,-1710.77)">
                    <path d="M94.38,2196.3C98.278,2196.3 101.441,2202.35 101.441,2209.8C101.441,2217.25 98.278,2223.3 94.38,2223.3C82.447,2223.3 71.268,2211.81 62.322,2191.46C50.24,2163.99 42.176,2119.78 42.176,2069.8C42.176,2019.82 50.24,1975.62 62.322,1948.14C71.268,1927.8 82.447,1916.3 94.38,1916.3C106.314,1916.3 117.493,1927.8 126.439,1948.14C138.521,1975.62 146.585,2019.82 146.585,2069.8C146.585,2122.25 137.693,2168.33 124.602,2195.45C121.959,2200.93 117.488,2201.27 114.624,2196.22C111.76,2191.17 111.58,2182.62 114.223,2177.14C125.375,2154.04 132.463,2114.48 132.463,2069.8C132.463,2027.06 125.963,1989.01 115.63,1965.52C109.632,1951.88 102.381,1943.3 94.38,1943.3C86.38,1943.3 79.129,1951.88 73.131,1965.52C62.798,1989.01 56.298,2027.06 56.298,2069.8C56.298,2112.55 62.798,2150.59 73.131,2174.09C79.129,2187.73 86.38,2196.3 94.38,2196.3Z" style="fill:white;"/>
                </g>
                <g transform="matrix(1.16075,0,0,1.04159,0,-2358.66)">
                    <path d="M203.135,2644.49C155.499,2644.49 116.825,2581.76 116.825,2504.49C116.825,2427.23 155.499,2364.49 203.135,2364.49C280.403,2364.49 343.135,2427.23 343.135,2504.49C343.135,2581.76 280.403,2644.49 203.135,2644.49ZM203.135,2391.49C191.595,2391.49 181.493,2398.61 172.841,2408.9C154.757,2430.41 143.825,2465.37 143.825,2504.49C143.825,2543.62 154.757,2578.58 172.841,2600.09C181.493,2610.38 191.595,2617.49 203.135,2617.49C265.502,2617.49 316.135,2566.86 316.135,2504.49C316.135,2442.13 265.502,2391.49 203.135,2391.49Z" style="fill:white;"/>
                </g>
            </g>
        </g>
    </g>
</svg>
