<?xml version="1.0" encoding="UTF-8" standalone="no"?>
<!DOCTYPE svg PUBLIC "-//W3C//DTD SVG 1.1//EN" "http://www.w3.org/Graphics/SVG/1.1/DTD/svg11.dtd">
<svg width="100%" height="100%" viewBox="0 0 1204 358" version="1.1" xmlns="http://www.w3.org/2000/svg" xmlns:xlink="http://www.w3.org/1999/xlink" xml:space="preserve" xmlns:serif="http://www.serif.com/" style="fill-rule:evenodd;clip-rule:evenodd;stroke-linejoin:round;stroke-miterlimit:2;">
    <g transform="matrix(1,0,0,1,-5861,-2466.67)">
        <g transform="matrix(2.556,0,0,0.7152,5861,2466.67)">
            <g transform="matrix(0.391236,0,0,1.39821,-2130.55,-3448.92)">
                <ellipse cx="5624.49" cy="2645.47" rx="178.797" ry="178.8" style="fill:rgb(108,56,252);"/>
            </g>
            <g transform="matrix(0.254544,0,0,1.01377,13.9514,-3.44176)">
                <g transform="matrix(2.01879,0,0,0.947505,-43.4345,-1710.77)">
                    <path d="M94.38,2196.3C98.278,2196.3 101.441,2202.35 101.441,2209.8C101.441,2217.25 98.278,2223.3 94.38,2223.3C82.447,2223.3 71.268,2211.81 62.322,2191.46C50.24,2163.99 42.176,2119.78 42.176,2069.8C42.176,2019.82 50.24,1975.62 62.322,1948.14C71.268,1927.8 82.447,1916.3 94.38,1916.3C106.314,1916.3 117.493,1927.8 126.439,1948.14C138.521,1975.62 146.585,2019.82 146.585,2069.8C146.585,2122.25 137.693,2168.33 124.602,2195.45C121.959,2200.93 117.488,2201.27 114.624,2196.22C111.76,2191.17 111.58,2182.62 114.223,2177.14C125.375,2154.04 132.463,2114.48 132.463,2069.8C132.463,2027.06 125.963,1989.01 115.63,1965.52C109.632,1951.88 102.381,1943.3 94.38,1943.3C86.38,1943.3 79.129,1951.88 73.131,1965.52C62.798,1989.01 56.298,2027.06 56.298,2069.8C56.298,2112.55 62.798,2150.59 73.131,2174.09C79.129,2187.73 86.38,2196.3 94.38,2196.3Z" style="fill:white;"/>
                </g>
                <g transform="matrix(1.16075,0,0,1.04159,0,-2358.66)">
                    <path d="M203.135,2644.49C155.499,2644.49 116.825,2581.76 116.825,2504.49C116.825,2427.23 155.499,2364.49 203.135,2364.49C280.403,2364.49 343.135,2427.23 343.135,2504.49C343.135,2581.76 280.403,2644.49 203.135,2644.49ZM203.135,2391.49C191.595,2391.49 181.493,2398.61 172.841,2408.9C154.757,2430.41 143.825,2465.37 143.825,2504.49C143.825,2543.62 154.757,2578.58 172.841,2600.09C181.493,2610.38 191.595,2617.49 203.135,2617.49C265.502,2617.49 316.135,2566.86 316.135,2504.49C316.135,2442.13 265.502,2391.49 203.135,2391.49Z" style="fill:white;"/>
                </g>
            </g>
        </g>
        <g transform="matrix(2.556,0,0,0.7152,5861,2466.67)">
            <g transform="matrix(2.32969,0,0,11.763,-41.1389,-3567.33)">
                <g transform="matrix(0.300336,0,0,0.213073,-220.597,72.9443)">
                    <path d="M1149.23,1226.8C1164.06,1226.8 1175.73,1219.89 1175.73,1206.06C1175.73,1195.98 1169.97,1189.65 1154.27,1185.62L1145.77,1183.46C1136.27,1181.01 1132.53,1179.14 1132.53,1174.1C1132.53,1169.34 1136.7,1166.75 1142.89,1166.75C1151.97,1166.75 1159.45,1171.36 1164.35,1179.14L1173.85,1169.06C1169.53,1161.14 1159.02,1153.94 1144.05,1153.94C1127.92,1153.94 1117.41,1161.86 1117.41,1174.96C1117.41,1187.78 1127.63,1192.67 1138.72,1195.26L1148.08,1197.57C1155.85,1199.44 1161.18,1201.17 1161.18,1206.35C1161.18,1211.39 1156.72,1213.84 1149.81,1213.84C1137.28,1213.84 1128.64,1206.64 1124.75,1199.58L1115.25,1209.66C1120.57,1220.75 1134.25,1226.8 1149.23,1226.8Z" style="fill:white;"/>
                </g>
                <g transform="matrix(0.299848,0,0,0.212234,-219.05,73.9429)">
                    <path d="M1200.06,1249.41C1211.44,1249.41 1219.65,1244.37 1224.69,1230.26L1250.61,1155.23L1232.75,1155.23L1220.22,1194.98L1215.18,1213.7L1210.14,1194.98L1197.47,1155.23L1179.76,1155.23L1202.94,1221.04L1212.88,1221.04L1211.58,1224.93C1208.99,1232.7 1205.53,1235.15 1200.06,1235.15C1193.58,1235.15 1189.26,1231.12 1185.52,1225.79L1177.89,1238.75C1181.77,1244.22 1189.98,1249.41 1200.06,1249.41Z" style="fill:white;"/>
                </g>
                <g transform="matrix(0.299848,0,0,0.212234,-218.38,73.9429)">
                    <path d="M1273.5,1225.36L1273.5,1186.05C1273.5,1174.53 1277.53,1166.9 1289.34,1166.9C1300.14,1166.9 1303.02,1172.8 1303.02,1181.44L1303.02,1225.36L1319.29,1225.36L1319.29,1176.54C1319.29,1162 1310.94,1153.79 1297.26,1153.79C1285.7,1153.79 1279.01,1156.73 1273.5,1166.9L1273.5,1155.23L1257.37,1155.23L1257.37,1225.36L1273.5,1225.36Z" style="fill:white;"/>
                </g>
                <g transform="matrix(0.299848,0,0,0.213652,-218.925,72.234)">
                    <path d="M1366.67,1226.8C1382.22,1226.8 1391.73,1219.74 1397.05,1211.68L1387.12,1201.31C1384.53,1207.22 1379.05,1213.55 1366.81,1213.55C1355.73,1213.55 1348.38,1206.78 1347.52,1194.26L1397.63,1194.26C1397.92,1192.82 1398.21,1189.79 1398.21,1187.2C1398.21,1167.76 1386.54,1153.79 1365.52,1153.79C1345.79,1153.79 1332.11,1168.34 1332.11,1190.37C1332.11,1212.26 1345.79,1226.8 1366.67,1226.8ZM1365.52,1166.75C1376.17,1166.75 1382.51,1172.8 1383.66,1183.89L1347.66,1183.89C1348.96,1172.51 1355.58,1166.75 1365.52,1166.75Z" style="fill:white;"/>
                </g>
                <g transform="matrix(0.299848,0,0,0.212234,-219.858,73.9429)">
                    <path d="M1428.45,1225.36L1428.45,1186.77C1428.45,1175.1 1435.93,1165.89 1444,1165.89C1448.75,1165.89 1450.62,1169.06 1450.62,1172.94L1450.62,1183.89L1465.89,1183.89L1465.89,1169.92C1465.89,1159.55 1459.41,1153.79 1450.62,1153.79C1441.04,1153.79 1434.47,1157.4 1428.45,1167.36L1428.45,1155.23L1412.32,1155.23L1412.32,1225.36L1428.45,1225.36Z" style="fill:white;"/>
                </g>
                <g transform="matrix(0.299848,0,0,0.212234,0,-43.2335)">
                    <path d="M356.648,1769.29C350.754,1775.35 342.874,1779.05 334.221,1779.05C315.981,1779.05 301.173,1762.59 301.173,1742.31C301.173,1722.02 315.981,1705.56 334.221,1705.56C342.874,1705.56 350.754,1709.26 356.648,1715.32L356.648,1680.99L372.776,1680.99L372.776,1777.47L356.648,1777.47L356.648,1769.29ZM356.648,1740.26C355.822,1728.16 347.748,1718.66 337.923,1718.66C327.551,1718.66 319.129,1729.26 319.129,1742.31C319.129,1755.35 327.551,1765.95 337.923,1765.95C347.748,1765.95 355.822,1756.44 356.648,1744.35L356.648,1740.26Z" style="fill:white;"/>
                </g>
            </g>
        </g>
    </g>
</svg>
